<svg xmlns="http://www.w3.org/2000/svg" viewBox="0 0 218 382"><defs><style>.cls-1{isolation:isolate;}.cls-2{opacity:0.75;mix-blend-mode:multiply;}.cls-3{fill:#e0dede;}.cls-3,.cls-4{fill-rule:evenodd;}.cls-4{fill:#e62632;}</style></defs><title>illustration</title><g class="cls-1"><g id="Layer_1" data-name="Layer 1"><g class="cls-2"><path class="cls-3" d="M145,139.84c.18.5.37,1,.51,1.52L192.29,253h0a14.29,14.29,0,0,1,.76,4.64c0,7.43-5.7,13.52-12.7,13.52l-.82,0v0H146.76V331l-.07.24a31.26,31.26,0,0,1-1.56,9.48,26.31,26.31,0,0,1-5.24,8.93h0A30.64,30.64,0,0,1,124.44,359v0a34.94,34.94,0,0,1-8.52,1h0a31.77,31.77,0,0,1-8.54-1.14l0,.07A31.75,31.75,0,0,1,99,355.37a30.48,30.48,0,0,1-6.89-5.7l-.13-.17a26.38,26.38,0,0,1-5.13-8.81,30.11,30.11,0,0,1-1.64-9.48l-.06-.24V271.19H51.7A12.94,12.94,0,0,1,39,257.67c.14-3.63.46-3.65,2.07-7.86L86.5,141l0-.15.33-.95a25.8,25.8,0,0,1,5.32-8.72l.18-.21a31.48,31.48,0,0,1,6.78-5.3v0a32.31,32.31,0,0,1,8.17-3.29l.06-.08a39.75,39.75,0,0,1,8.29-1.08,37,37,0,0,1,8.49.9,32.8,32.8,0,0,1,8.37,3.29,30.06,30.06,0,0,1,7.08,5.59,25.75,25.75,0,0,1,5.38,8.83M116,31c-22.65,0-41,17.44-41,39s18.37,38.91,41,38.91S157,91.43,157,70,138.6,31,116,31Z"/></g><path class="cls-4" d="M135,132.84c.18.5.37,1,.51,1.52L182.29,246h0a14.29,14.29,0,0,1,.76,4.64c0,7.43-5.7,13.52-12.7,13.52l-.82,0v0H136.76V324l-.07.24a31.26,31.26,0,0,1-1.56,9.48,26.31,26.31,0,0,1-5.24,8.93h0A30.64,30.64,0,0,1,114.44,352v0a34.94,34.94,0,0,1-8.52,1h0a31.77,31.77,0,0,1-8.54-1.14l0,.07A31.75,31.75,0,0,1,89,348.37a30.48,30.48,0,0,1-6.89-5.7l-.13-.17a26.38,26.38,0,0,1-5.13-8.81,30.11,30.11,0,0,1-1.64-9.48l-.06-.24V264.19H41.7A12.94,12.94,0,0,1,29,250.67c.14-3.63.46-3.65,2.07-7.86L76.5,134l0-.15.33-.95a25.8,25.8,0,0,1,5.32-8.72l.18-.21a31.48,31.48,0,0,1,6.78-5.3v0a32.31,32.31,0,0,1,8.17-3.29l.06-.08a39.75,39.75,0,0,1,8.29-1.08,37,37,0,0,1,8.49.9,32.8,32.8,0,0,1,8.37,3.29,30.06,30.06,0,0,1,7.08,5.59,25.75,25.75,0,0,1,5.38,8.83M106,24c-22.65,0-41,17.44-41,39s18.37,38.91,41,38.91S147,84.43,147,63,128.6,24,106,24Z"/></g></g></svg>