<svg xmlns="http://www.w3.org/2000/svg" viewBox="0 0 203 402"><defs><style>.cls-1{isolation:isolate;}.cls-2{opacity:0.75;mix-blend-mode:multiply;}.cls-3{fill:#e0dede;}.cls-4{fill:#e62632;}</style></defs><title>illustration</title><g class="cls-1"><g id="Layer_1" data-name="Layer 1"><g class="cls-2"><path class="cls-3" d="M109.24,51.22a37.85,37.85,0,1,0,38.58,37.11,37.86,37.86,0,0,0-38.58-37.11m32.87,301.21a30,30,0,0,0,1.4-9.32l.05-.2-1.64-81.28,39.86-106.46h0a15.46,15.46,0,0,0,.61-4.51c-.15-7.26-5.53-13.06-12-12.93l-.77.06,0,0L51.79,140.12h0c-6.47.13-11.59,6.14-11.45,13.41a15.31,15.31,0,0,0,.28,2.54h-.33l44.79,106.7,1.64,81.27.06.2a29.27,29.27,0,0,0,1.77,9.12,25.14,25.14,0,0,0,5.08,8.41l.18.19a28.81,28.81,0,0,0,6.36,5V367a30.5,30.5,0,0,0,7.6,3.07l.06,0a30.56,30.56,0,0,0,7.68.87,28.84,28.84,0,0,0,7.79-1,26.63,26.63,0,0,0,7.67-3.32,27.42,27.42,0,0,0,6.39-5.57A25.05,25.05,0,0,0,142.11,352.43Z"/></g><path class="cls-4" d="M99.24,44.22a37.85,37.85,0,1,0,38.58,37.11A37.86,37.86,0,0,0,99.24,44.22m32.87,301.21a30,30,0,0,0,1.4-9.32l.05-.2-1.64-81.28,39.86-106.46h0a15.46,15.46,0,0,0,.61-4.51c-.15-7.26-5.53-13.06-12-12.93l-.77.06,0,0L41.79,133.12h0c-6.47.13-11.59,6.14-11.45,13.41a15.31,15.31,0,0,0,.28,2.54h-.33l44.79,106.7,1.64,81.27.06.2a29.27,29.27,0,0,0,1.77,9.12,25.14,25.14,0,0,0,5.08,8.41l.18.19a28.81,28.81,0,0,0,6.36,5V360a30.5,30.5,0,0,0,7.6,3.07l.06,0a30.56,30.56,0,0,0,7.68.87,28.84,28.84,0,0,0,7.79-1,26.63,26.63,0,0,0,7.67-3.32,27.42,27.42,0,0,0,6.39-5.57A25.05,25.05,0,0,0,132.11,345.43Z"/></g></g></svg>