<svg id="Layer_1" data-name="Layer 1" xmlns="http://www.w3.org/2000/svg" viewBox="0 0 117 117"><defs><style>.cls-1{fill:#677f8a;}</style></defs><title>about-icons</title><path class="cls-1" d="M9.6,86.63a.36.36,0,0,0,0,.11.19.19,0,0,0,0,.07l6.6,13.2a1.65,1.65,0,0,0,2.95,0l6.6-13.2s0,0,0-.06a.36.36,0,0,0,0-.11,1.71,1.71,0,0,0,.1-.5s0,0,0-.06V26.67a8.25,8.25,0,0,0-16.5,0v59.4a.14.14,0,0,0,0,.06A1.44,1.44,0,0,0,9.6,86.63Zm13.08-2.21h-3.3V34.92h3.3Zm-6.6,0h-3.3V34.92h3.3Zm1.65,11.16L13.8,87.72h7.86Zm-5-68.91a4.95,4.95,0,1,1,9.9,0v4.95h-9.9Z"/><path class="cls-1" d="M36,108.15a1.66,1.66,0,0,0,1.52,1h69.3a1.65,1.65,0,0,0,1.65-1.65V38.22a1.64,1.64,0,0,0-2.81-1.17l-5.44,5.43V31.62A1.65,1.65,0,0,0,98.58,30H80.43V11.82a1.65,1.65,0,0,0-1.65-1.65H32.58a1.65,1.65,0,0,0-1.65,1.65V91a1.65,1.65,0,0,0,1.65,1.65H50.05L36.37,106.35A1.63,1.63,0,0,0,36,108.15ZM96.93,33.27V45.78l-16.5,16.5v-29Zm-62.7-19.8h42.9V65.58l-7.49,7.49a1.62,1.62,0,0,0-.76-.2H42.48a1.65,1.65,0,0,0-1.65,1.65V89.37h-6.6Zm23.1,71.91V76.17h9.22Zm-13.2,4V76.17H54V88.68l-.68.69Zm9.9,4,2.14,2.13,2.33-2.33L56.37,91l.48-.49,7.08-7.08,2.14,2.13,2.33-2.33-2.13-2.13,3.78-3.79,3.78-3.78L76,75.68l2.33-2.33-2.13-2.13L80,67.43l3.78-3.78,2.14,2.13,2.33-2.33-2.13-2.13,7.56-7.57,2.14,2.13,2.33-2.33L96,51.42l3.78-3.79,5.43-5.43v63.67H41.52Z"/><path class="cls-1" d="M99.22,61.44a1.65,1.65,0,0,0-1.8.36L61.12,98.1a1.63,1.63,0,0,0-.36,1.8,1.66,1.66,0,0,0,1.52,1h36.3a1.65,1.65,0,0,0,1.65-1.65V63A1.66,1.66,0,0,0,99.22,61.44ZM96.93,97.62H66.27L96.93,67Z"/><path class="cls-1" d="M39.18,30h6.6a1.65,1.65,0,0,0,1.65-1.65v-9.9a1.65,1.65,0,0,0-1.65-1.65h-6.6a1.65,1.65,0,0,0-1.65,1.65v9.9A1.65,1.65,0,0,0,39.18,30Zm1.65-9.9h3.3v6.6h-3.3Z"/><path class="cls-1" d="M52.38,30H59a1.65,1.65,0,0,0,1.65-1.65v-9.9A1.65,1.65,0,0,0,59,16.77h-6.6a1.65,1.65,0,0,0-1.65,1.65v9.9A1.65,1.65,0,0,0,52.38,30ZM54,20.07h3.3v6.6H54Z"/><path class="cls-1" d="M65.58,30h6.6a1.65,1.65,0,0,0,1.65-1.65v-9.9a1.65,1.65,0,0,0-1.65-1.65h-6.6a1.65,1.65,0,0,0-1.65,1.65v9.9A1.65,1.65,0,0,0,65.58,30Zm1.65-9.9h3.3v6.6h-3.3Z"/><path class="cls-1" d="M39.18,49.77h6.6a1.65,1.65,0,0,0,1.65-1.65v-9.9a1.65,1.65,0,0,0-1.65-1.65h-6.6a1.65,1.65,0,0,0-1.65,1.65v9.9A1.65,1.65,0,0,0,39.18,49.77Zm1.65-9.9h3.3v6.6h-3.3Z"/><path class="cls-1" d="M52.38,49.77H59a1.65,1.65,0,0,0,1.65-1.65v-9.9A1.65,1.65,0,0,0,59,36.57h-6.6a1.65,1.65,0,0,0-1.65,1.65v9.9A1.65,1.65,0,0,0,52.38,49.77ZM54,39.87h3.3v6.6H54Z"/><path class="cls-1" d="M65.58,49.77h6.6a1.65,1.65,0,0,0,1.65-1.65v-9.9a1.65,1.65,0,0,0-1.65-1.65h-6.6a1.65,1.65,0,0,0-1.65,1.65v9.9A1.65,1.65,0,0,0,65.58,49.77Zm1.65-9.9h3.3v6.6h-3.3Z"/><path class="cls-1" d="M45.78,69.57a1.65,1.65,0,0,0,1.65-1.65V58a1.65,1.65,0,0,0-1.65-1.65h-6.6A1.65,1.65,0,0,0,37.53,58v9.9a1.65,1.65,0,0,0,1.65,1.65Zm-5-9.9h3.3v6.6h-3.3Z"/><path class="cls-1" d="M52.38,69.57H59a1.65,1.65,0,0,0,1.65-1.65V58A1.65,1.65,0,0,0,59,56.37h-6.6A1.65,1.65,0,0,0,50.73,58v9.9A1.65,1.65,0,0,0,52.38,69.57ZM54,59.67h3.3v6.6H54Z"/><path class="cls-1" d="M65.58,69.57h6.6a1.65,1.65,0,0,0,1.65-1.65V58a1.65,1.65,0,0,0-1.65-1.65h-6.6A1.65,1.65,0,0,0,63.93,58v9.9A1.65,1.65,0,0,0,65.58,69.57Zm1.65-9.9h3.3v6.6h-3.3Z"/><path class="cls-1" d="M85.38,49.77H92a1.65,1.65,0,0,0,1.65-1.65v-9.9A1.65,1.65,0,0,0,92,36.57h-6.6a1.65,1.65,0,0,0-1.65,1.65v9.9A1.65,1.65,0,0,0,85.38,49.77ZM87,39.87h3.3v6.6H87Z"/></svg>