<svg id="Layer_1" data-name="Layer 1" xmlns="http://www.w3.org/2000/svg" viewBox="0 0 117 117"><defs><style>.cls-1{fill:#677f8a;}</style></defs><title>about-icons</title><path class="cls-1" d="M12.81,53.15h39.6a1.65,1.65,0,0,0,1.65-1.65V11.9a1.65,1.65,0,0,0-1.65-1.65H12.81a1.65,1.65,0,0,0-1.65,1.65V51.5A1.65,1.65,0,0,0,12.81,53.15Zm1.65-3.3v-6.6h36.3v6.6Zm36.3-16.5V40H14.46v-6.6Zm-36.3-3.3v-6.6h36.3v6.6Zm36.3-16.5v6.6H14.46v-6.6Z"/><path class="cls-1" d="M100.26,11.9a1.65,1.65,0,0,0-1.65-1.65H59a1.65,1.65,0,0,0-1.65,1.65V51.5A1.65,1.65,0,0,0,59,53.15h39.6a1.65,1.65,0,0,0,1.65-1.65Zm-19.8,1.65h6.6v36.3h-6.6Zm-3.3,36.3h-6.6V13.55h6.6Zm-16.5-36.3h6.6v36.3h-6.6ZM97,49.85h-6.6V13.55H97Z"/><path class="cls-1" d="M12.81,99.35h39.6a1.65,1.65,0,0,0,1.65-1.65V58.1a1.65,1.65,0,0,0-1.65-1.65H12.81a1.65,1.65,0,0,0-1.65,1.65V97.7A1.65,1.65,0,0,0,12.81,99.35ZM31,96.05h-6.6V59.75H31Zm3.3-36.3h6.6v36.3h-6.6Zm16.5,36.3h-6.6V59.75h6.6Zm-36.3-36.3h6.6v36.3h-6.6Z"/><path class="cls-1" d="M106.86,82.17V64.7a1.65,1.65,0,0,0-1.65-1.65H65.61A1.65,1.65,0,0,0,64,64.7v39.6A1.65,1.65,0,0,0,65.61,106h19.8v3.3h3.3v-33a1.62,1.62,0,0,1,.34-1,1.68,1.68,0,0,1,2.61,0,1.63,1.63,0,0,1,.35,1v6.6a1.65,1.65,0,0,0,1.65,1.65h10.86l2.34,2.33v8.54l-2.55,2.54-4.58,1.53A1.64,1.64,0,0,0,98.61,101v8.25h3.3v-7.06l3.82-1.27a1.65,1.65,0,0,0,.64-.4l3.3-3.3a1.66,1.66,0,0,0,.49-1.17v-9.9a1.66,1.66,0,0,0-.49-1.17ZM67.26,66.35h36.3V73H94l0,0a5.58,5.58,0,0,0-.67-.61l-.08-.07a6.18,6.18,0,0,0-.83-.48l0,0a4.72,4.72,0,0,0-.92-.3l0,0a4.92,4.92,0,0,0-2.07,0l0,0a4.15,4.15,0,0,0-.92.31l0,0a4.9,4.9,0,0,0-.83.49l-.08.06a5.58,5.58,0,0,0-.67.61l0,0H67.26Zm18.15,26.4H67.26v-6.6H85.41Zm0-9.9H67.26v-6.6H85.41Zm-18.15,19.8v-6.6H85.41v6.6Zm28.05-26.4h8.25v5H95.31Z"/><rect class="cls-1" x="57.36" y="56.45" width="3.3" height="3.3"/><rect class="cls-1" x="67.26" y="56.45" width="3.3" height="3.3"/><rect class="cls-1" x="77.16" y="56.45" width="3.3" height="3.3"/><rect class="cls-1" x="57.36" y="66.35" width="3.3" height="3.3"/><rect class="cls-1" x="57.36" y="76.25" width="3.3" height="3.3"/><rect class="cls-1" x="87.06" y="56.45" width="3.3" height="3.3"/><rect class="cls-1" x="96.96" y="56.45" width="3.3" height="3.3"/><rect class="cls-1" x="57.36" y="86.15" width="3.3" height="3.3"/><rect class="cls-1" x="57.36" y="97.7" width="3.3" height="3.3"/></svg>