<svg id="Layer_1" data-name="Layer 1" xmlns="http://www.w3.org/2000/svg" viewBox="0 0 117 117"><defs><style>.cls-1{fill:#677f8a;}</style></defs><title>about-icons</title><path class="cls-1" d="M9.48,36.57h8.25V48.12s0,0,0,.06a1.87,1.87,0,0,0,.11.51.42.42,0,0,0,0,.1.19.19,0,0,0,0,.07l3.3,6.6a1.66,1.66,0,0,0,1.47.91h1.65v13.2H22.68a1.64,1.64,0,0,0-1.47.91l-1.65,3.3a1.67,1.67,0,0,0-.16,1l1.65,9.9a1.67,1.67,0,0,0,1.63,1.38h6.6a1.65,1.65,0,0,0,1.63-1.38l1.65-9.9a1.61,1.61,0,0,0-.15-1l-1.65-3.3a1.65,1.65,0,0,0-1.48-.91H27.63V56.37h1.65a1.66,1.66,0,0,0,1.48-.92l3.3-6.6,0-.06a.36.36,0,0,0,0-.11,1.44,1.44,0,0,0,.1-.5s0,0,0-.06V36.57H49.08V80.92L46.15,92.67H42.66L28,89.41a1.64,1.64,0,0,0-1.75,2.48l8.25,13.2a1.64,1.64,0,0,0,1.39.78H70.53v1.65a1.65,1.65,0,0,0,1.65,1.65h13.2A1.65,1.65,0,0,0,87,107.52V91a1.65,1.65,0,0,0-1.65-1.65H72.18A1.65,1.65,0,0,0,70.53,91v1.65h-2L65.58,80.92V36.57H80.43V62.28L74.32,68.4a1.66,1.66,0,0,0-.49,1.17V81.12a1.65,1.65,0,0,0,1,1.53L83.12,86a1.65,1.65,0,0,0,2.26-1.53v-9.9H92v9.9a1.65,1.65,0,0,0,.73,1.36,1.62,1.62,0,0,0,.92.29,1.67,1.67,0,0,0,.62-.12l8.25-3.3a1.65,1.65,0,0,0,1-1.53V69.57a1.65,1.65,0,0,0-.48-1.17l-6.12-6.12V36.57h8.25a1.65,1.65,0,0,0,1.65-1.65V11.82a1.65,1.65,0,0,0-1.65-1.65H9.48a1.65,1.65,0,0,0-1.65,1.65v23.1A1.65,1.65,0,0,0,9.48,36.57Zm19.74,38.2-1.33,8H24.08l-1.33-8,.95-1.9h4.56ZM11.13,33.27V30h6.6v3.3Zm19.8-5V46.47H21V21.72a1.65,1.65,0,0,1,1.65-1.65h6.6a1.65,1.65,0,0,1,1.65,1.65ZM28.26,53.07H23.7l-1.65-3.3h7.86Zm6-19.8V30H49.08v3.3Zm28.05-5V79.47h-9.9V21.72A1.65,1.65,0,0,1,54,20.07h6.6a1.65,1.65,0,0,1,1.65,1.65ZM73.83,92.67h9.9v13.2h-9.9V92.67Zm-3.3,9.9H36.8l-5.68-9.09,11,2.45a2,2,0,0,0,.35,0H70.53Zm-21-9.9L52,82.77H62.64l2.48,9.9Zm16-59.4V30H80.43v3.3Zm28.05-5v33h-9.9V21.72a1.65,1.65,0,0,1,1.65-1.65H92a1.65,1.65,0,0,1,1.65,1.65ZM100.23,80l-5,2V72.87a1.65,1.65,0,0,0-1.65-1.65h-9.9a1.65,1.65,0,0,0-1.65,1.65V82l-5-2V70.25l5.64-5.63H94.6l5.63,5.63Zm3.3-46.73h-6.6V30h6.6Zm-92.4-19.8h92.4v13.2h-6.6v-5a5,5,0,0,0-5-4.95h-6.6a5,5,0,0,0-4.95,4.95v5H65.58v-5a5,5,0,0,0-4.95-4.95H54a5,5,0,0,0-5,4.95v5H34.23v-5a5,5,0,0,0-4.95-4.95h-6.6a5,5,0,0,0-4.95,4.95v5h-6.6Z"/><rect class="cls-1" x="24.33" y="23.37" width="3.3" height="3.3"/><rect class="cls-1" x="55.68" y="23.37" width="3.3" height="3.3"/><rect class="cls-1" x="87.03" y="23.37" width="3.3" height="3.3"/></svg>