<svg id="Layer_1" data-name="Layer 1" xmlns="http://www.w3.org/2000/svg" viewBox="0 0 117 117"><defs><style>.cls-1{fill:#677f8a;}.cls-2{fill:none;stroke:#e62632;stroke-miterlimit:10;stroke-width:2px;}</style></defs><title>about-icons</title><path class="cls-1" d="M100.24,21.72H98.59V13.47a5,5,0,0,0-5-5h-3.3a5,5,0,0,0-5,5v8.25H32.59V13.47a5,5,0,0,0-5-5h-3.3a5,5,0,0,0-4.95,5v8.25H17.74A8.26,8.26,0,0,0,9.49,30v69.3a8.26,8.26,0,0,0,8.25,8.25h82.5a8.26,8.26,0,0,0,8.25-8.25V30A8.26,8.26,0,0,0,100.24,21.72ZM88.69,13.47a1.65,1.65,0,0,1,1.65-1.65h3.3a1.65,1.65,0,0,1,1.65,1.65V30a1.65,1.65,0,0,1-1.65,1.65h-3.3A1.65,1.65,0,0,1,88.69,30V13.47Zm-66,0a1.65,1.65,0,0,1,1.65-1.65h3.3a1.65,1.65,0,0,1,1.65,1.65V30a1.65,1.65,0,0,1-1.65,1.65h-3.3A1.65,1.65,0,0,1,22.69,30V13.47ZM17.74,25h1.65V30a5,5,0,0,0,4.95,5h3.3a5,5,0,0,0,5-5V25h52.8V30a5,5,0,0,0,5,5h3.3a5,5,0,0,0,5-5V25h1.65a5,5,0,0,1,5,4.95V48.12H12.79V30A5,5,0,0,1,17.74,25Zm82.5,79.2H17.74a5,5,0,0,1-4.95-5V51.42h92.4V99.27A5,5,0,0,1,100.24,104.22Z"/><path class="cls-1" d="M40.84,43.17h36.3a1.65,1.65,0,0,0,1.65-1.65v-9.9A1.65,1.65,0,0,0,77.14,30H40.84a1.65,1.65,0,0,0-1.65,1.65v9.9A1.65,1.65,0,0,0,40.84,43.17Zm1.65-9.9h33v6.6h-33Z"/><path class="cls-1" d="M30.94,56.37H21A1.65,1.65,0,0,0,19.39,58v8.25A1.65,1.65,0,0,0,21,67.92h9.9a1.65,1.65,0,0,0,1.65-1.65V58A1.65,1.65,0,0,0,30.94,56.37Zm-1.65,8.25h-6.6v-5h6.6Z"/><path class="cls-1" d="M52.39,56.37h-9.9A1.65,1.65,0,0,0,40.84,58v8.25a1.65,1.65,0,0,0,1.65,1.65h9.9A1.65,1.65,0,0,0,54,66.27V58A1.65,1.65,0,0,0,52.39,56.37Zm-1.65,8.25h-6.6v-5h6.6Z"/><path class="cls-1" d="M65.59,67.92h9.9a1.65,1.65,0,0,0,1.65-1.65V58a1.65,1.65,0,0,0-1.65-1.65h-9.9A1.65,1.65,0,0,0,63.94,58v8.25A1.65,1.65,0,0,0,65.59,67.92Zm1.65-8.25h6.6v5h-6.6Z"/><path class="cls-1" d="M96.94,56.37H87A1.65,1.65,0,0,0,85.39,58v8.25A1.65,1.65,0,0,0,87,67.92h9.9a1.65,1.65,0,0,0,1.65-1.65V58A1.65,1.65,0,0,0,96.94,56.37Zm-1.65,8.25h-6.6v-5h6.6Z"/><path class="cls-1" d="M30.94,72.87H21a1.65,1.65,0,0,0-1.65,1.65v8.25A1.65,1.65,0,0,0,21,84.42h9.9a1.65,1.65,0,0,0,1.65-1.65V74.52A1.65,1.65,0,0,0,30.94,72.87Zm-1.65,8.25h-6.6v-5h6.6Z"/><path class="cls-1" d="M52.39,72.87h-9.9a1.65,1.65,0,0,0-1.65,1.65v8.25a1.65,1.65,0,0,0,1.65,1.65h9.9A1.65,1.65,0,0,0,54,82.77V74.52A1.65,1.65,0,0,0,52.39,72.87Zm-1.65,8.25h-6.6v-5h6.6Z"/><path class="cls-1" d="M65.59,84.42h9.9a1.65,1.65,0,0,0,1.65-1.65V74.52a1.65,1.65,0,0,0-1.65-1.65h-9.9a1.65,1.65,0,0,0-1.65,1.65v8.25A1.65,1.65,0,0,0,65.59,84.42Zm1.65-8.25h6.6v5h-6.6Z"/><path class="cls-1" d="M96.94,72.87H87a1.65,1.65,0,0,0-1.65,1.65v8.25A1.65,1.65,0,0,0,87,84.42h9.9a1.65,1.65,0,0,0,1.65-1.65V74.52A1.65,1.65,0,0,0,96.94,72.87Zm-1.65,8.25h-6.6v-5h6.6Z"/><path class="cls-1" d="M30.94,89.37H21A1.65,1.65,0,0,0,19.39,91v8.25A1.65,1.65,0,0,0,21,100.92h9.9a1.65,1.65,0,0,0,1.65-1.65V91A1.65,1.65,0,0,0,30.94,89.37Zm-1.65,8.25h-6.6v-5h6.6Z"/><path class="cls-1" d="M52.39,89.37h-9.9A1.65,1.65,0,0,0,40.84,91v8.25a1.65,1.65,0,0,0,1.65,1.65h9.9A1.65,1.65,0,0,0,54,99.27V91A1.65,1.65,0,0,0,52.39,89.37Zm-1.65,8.25h-6.6v-5h6.6Z"/><path class="cls-1" d="M68.78,96.82l-3.67-3.67-2.33,2.33,5,5a1.58,1.58,0,0,0,1.16.49H69a1.68,1.68,0,0,0,1.19-.6l8.25-9.9-2.54-2.11Z"/><path class="cls-1" d="M88.58,96.82l-3.67-3.67-2.33,2.33,5,5a1.58,1.58,0,0,0,1.16.49h.08a1.68,1.68,0,0,0,1.19-.6l8.25-9.9-2.54-2.11Z"/><line class="cls-2" x1="0.49" x2="117.49" y2="117"/></svg>