<svg id="Layer_1" data-name="Layer 1" xmlns="http://www.w3.org/2000/svg" viewBox="0 0 117 117"><defs><style>.cls-1{fill:#677f8a;}.cls-2{fill:none;stroke:#e62632;stroke-miterlimit:10;stroke-width:2px;}</style></defs><title>about-icons</title><path class="cls-1" d="M44.65,68.94h-1a1.51,1.51,0,0,0-.37.07l-.68.06-.82.09c-.65.08-1.3.18-1.94.3-.26.05-.52.09-.78.15-.84.18-1.67.38-2.49.64,0,0,0,0,0,0A29.75,29.75,0,0,0,15.63,98.64v9.9a1.65,1.65,0,0,0,1.65,1.65h82.5a1.65,1.65,0,0,0,1.65-1.65v-9.9A29.75,29.75,0,0,0,80.49,70.26h0c-.82-.26-1.66-.46-2.5-.64-.25-.06-.51-.1-.77-.15-.65-.12-1.29-.22-2-.3l-.81-.09L73.75,69a1.43,1.43,0,0,0-.37-.07h-1l-4-4V63.2A21.46,21.46,0,0,0,80,44.19h1.65a1.65,1.65,0,0,0,1.65-1.65v-3.3A24.9,24.9,0,0,0,68.43,16.57V12.84a1.64,1.64,0,0,0-1.65-1.65H50.28a1.65,1.65,0,0,0-1.65,1.65v3.73A24.92,24.92,0,0,0,33.78,39.24v3.3a1.65,1.65,0,0,0,1.65,1.65h1.65a21.48,21.48,0,0,0,11.55,19V65ZM76,72.61c.66.11,1.32.23,2,.39l.36.1V95.34a1.65,1.65,0,0,0,.92,1.47l5.68,2.85v7.23H32.13V99.66l5.69-2.85a1.64,1.64,0,0,0,.91-1.47V73.1l.37-.1c.65-.16,1.31-.28,2-.39.29,0,.57-.11.86-.15H42V95.34A1.65,1.65,0,0,0,43.68,97h29.7A1.65,1.65,0,0,0,75,95.34V72.46h.12C75.44,72.5,75.72,72.57,76,72.61Zm-4.27,0v21H45.33v-21l12.21,9.16a1.75,1.75,0,0,0,1,.33,1.7,1.7,0,0,0,1-.33Zm-52.8,26a26.42,26.42,0,0,1,16.5-24.45V94.31L32.13,96V87.09h-3.3v19.8h-9.9Zm79.2,0v8.25h-9.9V87.09h-3.3V96l-3.3-1.65V74.19A26.42,26.42,0,0,1,98.13,98.64Zm-61-59.4A21.57,21.57,0,0,1,49,20.08l1.34,9.49,3.27-.47L51.93,17.56V14.49h5v6.6h3.3v-6.6h4.95v3.07L63.5,29.1l3.27.46,1.34-9.48A21.56,21.56,0,0,1,80,39.24v1.65H37.08Zm3.3,4.95h36.3a18.15,18.15,0,0,1-36.3,0ZM53,64.87c.29.08.57.16.86.22l.93.19,1,.16.84.1c.52,0,1,.07,1.56.08l.34,0,.35,0c.52,0,1,0,1.55-.08l.85-.1,1-.16.94-.19c.29-.06.57-.14.85-.22l1-.28v1a1.65,1.65,0,0,0,.49,1.16l3.6,3.61-10.69,8-10.69-8,3.61-3.61a1.64,1.64,0,0,0,.48-1.16v-1Z"/><line class="cls-2" x1="0.03" x2="117.03" y2="117"/></svg>