<svg id="Layer_1" data-name="Layer 1" xmlns="http://www.w3.org/2000/svg" viewBox="0 0 117 117"><defs><style>.cls-1{fill:#677f8a;}.cls-2{fill:none;stroke:#e62632;stroke-miterlimit:10;stroke-width:2px;}</style></defs><title>about-icons</title><rect class="cls-1" x="30.45" y="36.57" width="3.3" height="3.3"/><path class="cls-1" d="M103.78,54.89A4.28,4.28,0,0,1,101.4,51V37.46a15.45,15.45,0,0,0-1.2-6,15.72,15.72,0,0,0-11-9.31l5.42-9.48a1.67,1.67,0,0,0,0-1.65,1.65,1.65,0,0,0-1.43-.82H73.35a1.65,1.65,0,0,0-1.43.82,1.67,1.67,0,0,0,0,1.65l5.42,9.48a15.16,15.16,0,0,0-2.53.8A15.74,15.74,0,0,0,65.1,37.46V50.73L61.32,47a1.65,1.65,0,0,0-1.17-.48H48.6v-28a8.26,8.26,0,0,0-8.25-8.25H10.65A1.65,1.65,0,0,0,9,11.82v95.7a1.65,1.65,0,0,0,1.65,1.65h16.5a8.26,8.26,0,0,0,8.25-8.25,1.65,1.65,0,0,0-1.65-1.65H24.94L21.4,91h19a8.26,8.26,0,0,0,8.25-8.25V71.22h7.57l6.11,6.11a1.66,1.66,0,0,0,1.17.49h38.78A5.78,5.78,0,0,0,108,72,5.84,5.84,0,0,0,106.31,68a6.54,6.54,0,0,0-.65-.53A7.58,7.58,0,0,0,108,61.94v-.23A7.57,7.57,0,0,0,103.78,54.89ZM90.31,13.47l-4.72,8.25H80.91l-4.72-8.25ZM68.4,51V37.46A12.35,12.35,0,0,1,72,28.66a12.51,12.51,0,0,1,4-2.7A12.21,12.21,0,0,1,80.84,25h4.82A12.4,12.4,0,0,1,97.15,32.7a12.22,12.22,0,0,1,.95,4.76V51a7.59,7.59,0,0,0,4.22,6.83,4.27,4.27,0,0,1,2.38,3.86v.23a4.33,4.33,0,0,1-4.32,4.33h-28l-.55-.56a6.32,6.32,0,0,0-.33-8.58l-3.56-3.55A7.43,7.43,0,0,0,68.4,51ZM27.15,105.87H12.3v-3.3H31.82A5,5,0,0,1,27.15,105.87Zm-5.8-6.6h-9V91h5.51Zm19-11.55h-28v-6.6h33v1.65A5,5,0,0,1,40.35,87.72Zm4.95-9.9h-33V13.47H40.35a5,5,0,0,1,4.95,5V46.47H33.75v-3.3h-3.3V74.52h3.3v-3.3H45.3Zm56.93-8.25a2.48,2.48,0,0,1,0,5H64.13L58,68.4a1.65,1.65,0,0,0-1.17-.48H33.75V49.77H59.47l9.69,9.69a3,3,0,0,1,.89,2.14,3,3,0,0,1-.89,2.13,2.5,2.5,0,0,1-.52.41l-.12.06a3,3,0,0,1-3.62-.47L56.37,55.2,54,57.53l8.53,8.53A6.47,6.47,0,0,0,69,67.59l1.49,1.49a1.66,1.66,0,0,0,1.17.49h30.53Z"/><path class="cls-1" d="M84.9,53.07H81.6A1.65,1.65,0,0,1,80,51.42h-3.3a5,5,0,0,0,4.95,4.95v3.3h3.3v-3.3a5,5,0,0,0,4.95-4.95V49.77a5,5,0,0,0-4.95-5H81.6A1.65,1.65,0,0,1,80,43.17V41.52a1.65,1.65,0,0,1,1.65-1.65h3.3a1.65,1.65,0,0,1,1.65,1.65h3.3a5,5,0,0,0-4.95-5v-3.3H81.6v3.3a5,5,0,0,0-4.95,5v1.65a5,5,0,0,0,4.95,4.95h3.3a1.65,1.65,0,0,1,1.65,1.65v1.65A1.65,1.65,0,0,1,84.9,53.07Z"/><rect class="cls-1" x="56.85" y="82.77" width="3.3" height="3.3"/><rect class="cls-1" x="63.45" y="82.77" width="3.3" height="3.3"/><rect class="cls-1" x="70.05" y="82.77" width="3.3" height="3.3"/><rect class="cls-1" x="76.65" y="82.77" width="18.15" height="3.3"/><rect class="cls-1" x="78.3" y="91.02" width="3.3" height="3.3"/><rect class="cls-1" x="84.9" y="91.02" width="14.85" height="3.3"/><line class="cls-2" x2="117" y2="117"/></svg>