<svg id="Layer_1" data-name="Layer 1" xmlns="http://www.w3.org/2000/svg" viewBox="0 0 117 117"><defs><style>.cls-1{fill:#677f8a;}</style></defs><title>about-icons</title><path class="cls-1" d="M10.62,109.17H108v-3.3h-6.6v-3.3h-3.3v3.3h-6.6v-3.3h-3.3v3.3h-6.6v-3.3h-3.3v3.3h-6.6v-3.3h-3.3v3.3h-6.6v-3.3h-3.3v3.3h-6.6v-3.3h-3.3v3.3H42v-3.3h-3.3v3.3h-6.6v-3.3h-3.3v3.3h-6.6v-3.3h-3.3v3.3h-6.6v-6.6h3.3V96h-3.3v-6.6h3.3v-3.3h-3.3v-6.6h3.3v-3.3h-3.3v-6.6h3.3v-3.3h-3.3v-6.6h3.3v-3.3h-3.3v-6.6h3.3v-3.3h-3.3v-6.6h3.3v-3.3h-3.3V30h3.3v-3.3h-3.3v-6.6h3.3v-3.3h-3.3v-6.6H9v97.35A1.65,1.65,0,0,0,10.62,109.17Z"/><path class="cls-1" d="M100.89,10.65a1.67,1.67,0,0,0-2.34,0L90.3,18.9l2.34,2.33L98,15.85a53.44,53.44,0,0,1-.82,7.61,4.92,4.92,0,0,0-2.67,8.3c-.27.51-.55,1-.85,1.47a29.05,29.05,0,0,1-9.84,8.86,4.9,4.9,0,0,0-7.14,3.6c-1,.41-2,.83-3.21,1.28-3.32,1.23-6.79,2.31-10.15,3.35-1.88.58-3.75,1.19-5.62,1.8a4.94,4.94,0,0,0-9.15,2.6,4.58,4.58,0,0,0,.09.83A51.56,51.56,0,0,0,31.5,68a4.83,4.83,0,0,0-1.08-.12,4.91,4.91,0,0,0-4.25,7.44,38.12,38.12,0,0,0-5.33,19l3.3,0a34.78,34.78,0,0,1,4.6-16.92,4.92,4.92,0,0,0,5.58-7.65,48.42,48.42,0,0,1,16-11.42,4.9,4.9,0,0,0,3.23,1.24,5,5,0,0,0,4.89-4.3q2.94-1,5.91-1.9c3.39-1,6.91-2.14,10.32-3.41,1-.37,1.87-.72,2.7-1.06a4.94,4.94,0,0,0,8.8-4.43A31.75,31.75,0,0,0,96.45,35c.37-.57.71-1.18,1-1.81a5.42,5.42,0,0,0,.58.06A4.94,4.94,0,0,0,100.45,24a56.26,56.26,0,0,0,.88-8.24l5.47,5.47,2.34-2.33ZM30.42,74.52a1.65,1.65,0,1,1,1.65-1.65A1.65,1.65,0,0,1,30.42,74.52Zm23.1-18.15a1.65,1.65,0,1,1,1.65-1.65A1.65,1.65,0,0,1,53.52,56.37Zm28-8.25a1.65,1.65,0,1,1,1.65-1.65A1.65,1.65,0,0,1,81.57,48.12ZM98.07,30a1.65,1.65,0,1,1,1.65-1.65A1.65,1.65,0,0,1,98.07,30Z"/><path class="cls-1" d="M35.37,84.42a5,5,0,1,0,5-5A5,5,0,0,0,35.37,84.42Zm6.6,0a1.65,1.65,0,1,1-1.65-1.65A1.65,1.65,0,0,1,42,84.42Z"/><path class="cls-1" d="M28.77,61.32a4.95,4.95,0,1,0-4.95,4.95A5,5,0,0,0,28.77,61.32ZM23.82,63a1.65,1.65,0,1,1,1.65-1.65A1.65,1.65,0,0,1,23.82,63Z"/><path class="cls-1" d="M50.22,67.92a5,5,0,1,0,5-5A5,5,0,0,0,50.22,67.92Zm6.6,0a1.65,1.65,0,1,1-1.65-1.65A1.65,1.65,0,0,1,56.82,67.92Z"/><path class="cls-1" d="M71.67,61.32a5,5,0,1,0,5-5A5,5,0,0,0,71.67,61.32Zm6.6,0a1.65,1.65,0,1,1-1.65-1.65A1.65,1.65,0,0,1,78.27,61.32Z"/><path class="cls-1" d="M56.82,39.87a4.95,4.95,0,1,0-5,5A5,5,0,0,0,56.82,39.87Zm-6.6,0a1.65,1.65,0,1,1,1.65,1.65A1.65,1.65,0,0,1,50.22,39.87Z"/><path class="cls-1" d="M103,43.17a5,5,0,1,0,5,4.95A5,5,0,0,0,103,43.17Zm0,6.6a1.65,1.65,0,1,1,1.65-1.65A1.65,1.65,0,0,1,103,49.77Z"/><path class="cls-1" d="M75,30a5,5,0,1,0,5-4.95A5,5,0,0,0,75,30Zm6.6,0a1.65,1.65,0,1,1-1.65-1.65A1.65,1.65,0,0,1,81.57,30Z"/><path class="cls-1" d="M71.67,39.87a5,5,0,1,0-5,5A5,5,0,0,0,71.67,39.87Zm-6.6,0a1.65,1.65,0,1,1,1.65,1.65A1.65,1.65,0,0,1,65.07,39.87Z"/><path class="cls-1" d="M89.82,15.12a4.95,4.95,0,1,0-4.95,5A5,5,0,0,0,89.82,15.12Zm-6.6,0a1.65,1.65,0,1,1,1.65,1.65A1.65,1.65,0,0,1,83.22,15.12Z"/><path class="cls-1" d="M43.62,53.07a4.95,4.95,0,1,0-4.95,5A5,5,0,0,0,43.62,53.07Zm-6.6,0a1.65,1.65,0,1,1,1.65,1.65A1.65,1.65,0,0,1,37,53.07Z"/></svg>