<svg xmlns="http://www.w3.org/2000/svg" version="1.1" viewBox="0 0 33 40" x="0px" y="0px"><title>menu</title><path style="fill:#ffffff;" d="M29.465 25.5h-25.93c-0.414 0-0.75-0.336-0.75-0.75s0.336-0.75 0.75-0.75h25.93c0.414 0 0.75 0.336 0.75 0.75s-0.336 0.75-0.75 0.75zM29.465 16.75h-25.93c-0.414 0-0.75-0.336-0.75-0.75s0.336-0.75 0.75-0.75h25.93c0.414 0 0.75 0.336 0.75 0.75s-0.336 0.75-0.75 0.75zM29.465 8h-25.93c-0.414 0-0.75-0.336-0.75-0.75s0.336-0.75 0.75-0.75h25.93c0.414 0 0.75 0.336 0.75 0.75s-0.336 0.75-0.75 0.75z"/><text x="0" y="47" fill="#fff" font-size="5px" font-weight="bold" font-family="'Helvetica Neue', Helvetica, Arial-Unicode, Arial, Sans-serif">Created by Rineesh</text><text x="0" y="52" fill="#fff" font-size="5px" font-weight="bold" font-family="'Helvetica Neue', Helvetica, Arial-Unicode, Arial, Sans-serif">from the Noun Project</text></svg>
