<svg id="Layer_1" data-name="Layer 1" xmlns="http://www.w3.org/2000/svg" viewBox="0 0 300 300"><defs><style>.cls-1{fill:#677e8a;opacity:0.61;}.cls-2,.cls-3{fill:#fff;}.cls-2{fill-rule:evenodd;}</style></defs><title>restroom-type</title><rect class="cls-1" x="70.45" y="67.3" width="168.94" height="168.94" rx="2"/><path class="cls-2" d="M183.64,133.37c.05.16.11.31.15.47l13.66,34.35h0a4.66,4.66,0,0,1,.22,1.43,4,4,0,0,1-3.71,4.16l-.24,0v0h-9.55v18.38l0,.08a10.14,10.14,0,0,1-.46,2.91,8.15,8.15,0,0,1-1.53,2.75h0a8.83,8.83,0,0,1-2,1.79,8.2,8.2,0,0,1-2.46,1.08v0a9.76,9.76,0,0,1-2.49.3h0a8.83,8.83,0,0,1-2.5-.35v0a9,9,0,0,1-4.45-2.85l0,0a8.33,8.33,0,0,1-1.5-2.71,9.75,9.75,0,0,1-.48-2.91l0-.08V173.78h-9.75a3.9,3.9,0,0,1-3.7-4.16,5.54,5.54,0,0,1,.6-2.42l13.26-33.46v-.05l.1-.29a8.09,8.09,0,0,1,1.55-2.68l.05-.07a9.78,9.78,0,0,1,2-1.63h0a9.05,9.05,0,0,1,2.39-1l0,0a10.47,10.47,0,0,1,2.42-.33,10.22,10.22,0,0,1,2.47.27,9.47,9.47,0,0,1,2.45,1,9.06,9.06,0,0,1,2.06,1.71,8,8,0,0,1,1.57,2.72m-8.47-33.48a12,12,0,1,0,12,12A12,12,0,0,0,175.17,99.89Z"/><path class="cls-3" d="M132.48,99.89a12,12,0,1,0,12,12,12,12,0,0,0-12-12M141,195.38a9.53,9.53,0,0,0,.51-2.94V166.66l13.29-33.42h0a5.14,5.14,0,0,0,.22-1.42,4,4,0,0,0-3.71-4.17H113.73a4,4,0,0,0-3.71,4.17,5.4,5.4,0,0,0,.07.8H110l13.49,34v25.78a9.52,9.52,0,0,0,.51,2.9,7.87,7.87,0,0,0,1.55,2.69l.06.06a8.7,8.7,0,0,0,2,1.63v0a9.83,9.83,0,0,0,2.39,1h0a10.11,10.11,0,0,0,2.43.32,9.36,9.36,0,0,0,2.47-.27,8.71,8.71,0,0,0,4.5-2.73A7.57,7.57,0,0,0,141,195.38Z"/></svg>