<svg id="Layer_1" data-name="Layer 1" xmlns="http://www.w3.org/2000/svg" viewBox="0 0 300 300"><defs><style>.cls-1{fill:#677e8a;opacity:0.61;}.cls-2{fill:#fff;}</style></defs><title>restroom-type</title><rect class="cls-1" x="70.45" y="67.3" width="168.94" height="168.94" rx="2"/><path class="cls-2" d="M156.48,99.89a12,12,0,1,0,12,12,12,12,0,0,0-12-12M165,195.38a9.53,9.53,0,0,0,.51-2.94V166.66l13.29-33.42h0a5.14,5.14,0,0,0,.22-1.42,4,4,0,0,0-3.71-4.17H137.73a4,4,0,0,0-3.71,4.17,5.4,5.4,0,0,0,.07.8H134l13.49,34v25.78a9.83,9.83,0,0,0,.5,2.9,8.06,8.06,0,0,0,1.56,2.69l.06.06a8.7,8.7,0,0,0,2,1.63v0a9.83,9.83,0,0,0,2.39,1h0a10.11,10.11,0,0,0,2.43.32,9.36,9.36,0,0,0,2.47-.27,8.71,8.71,0,0,0,4.5-2.73A7.57,7.57,0,0,0,165,195.38Z"/></svg>