<svg id="Layer_1" data-name="Layer 1" xmlns="http://www.w3.org/2000/svg" viewBox="0 0 300 300"><defs><style>.cls-1{fill:#677e8a;opacity:0.61;}.cls-2,.cls-3{fill:#fff;}.cls-2{fill-rule:evenodd;}</style></defs><title>restroom-type</title><rect class="cls-1" x="66.03" y="71" width="168.94" height="168.94" rx="2"/><path class="cls-2" d="M178.65,136.41c0,.15.1.29.14.44L191.57,169h0a4.48,4.48,0,0,1,.21,1.34,3.71,3.71,0,0,1-3.47,3.89l-.23,0v0h-8.93v17.2l0,.07a9.7,9.7,0,0,1-.43,2.73,7.48,7.48,0,0,1-1.43,2.56h0a8.41,8.41,0,0,1-4.23,2.7h0a8.83,8.83,0,0,1-2.32.28h0a8,8,0,0,1-2.33-.33v0a8.41,8.41,0,0,1-2.28-1,8.22,8.22,0,0,1-1.88-1.64l0,0a7.62,7.62,0,0,1-1.4-2.53,9.29,9.29,0,0,1-.45-2.73l0-.07v-17.2h-9.12a3.65,3.65,0,0,1-3.46-3.89,5.2,5.2,0,0,1,.56-2.26l12.4-31.3,0,0,.09-.28a7.44,7.44,0,0,1,1.45-2.51l0-.06a8.77,8.77,0,0,1,1.85-1.52h0a8.66,8.66,0,0,1,2.23-1l0,0a10.27,10.27,0,0,1,2.26-.31,9.49,9.49,0,0,1,2.32.26,9.13,9.13,0,0,1,2.28.94,8.53,8.53,0,0,1,1.94,1.61,7.53,7.53,0,0,1,1.46,2.54m-7.93-31.31a11.2,11.2,0,1,0,11.2,11.21A11.2,11.2,0,0,0,170.72,105.1Z"/><path class="cls-3" d="M130.79,105.1A11.2,11.2,0,1,0,142,116.31a11.21,11.21,0,0,0-11.2-11.21m7.93,89.32a8.66,8.66,0,0,0,.47-2.75l0-.06V167.55l12.43-31.26h0a4.51,4.51,0,0,0,.21-1.33,3.71,3.71,0,0,0-3.47-3.9H113.25a3.7,3.7,0,0,0-3.46,3.9,4.65,4.65,0,0,0,.06.75h-.09l12.61,31.84v24.06l0,.06a8.64,8.64,0,0,0,.47,2.71,7.39,7.39,0,0,0,1.45,2.52l.06.06a8,8,0,0,0,1.85,1.52h0a9,9,0,0,0,2.23,1h0a9.28,9.28,0,0,0,2.27.3,8.16,8.16,0,0,0,2.31-.26,7.77,7.77,0,0,0,2.29-.93,8.39,8.39,0,0,0,1.92-1.61A7.24,7.24,0,0,0,138.72,194.42Z"/><path class="cls-2" d="M97.52,155.07l.09.29,8.55,21.5h0a2.93,2.93,0,0,1,.14.9,2.48,2.48,0,0,1-2.32,2.6H97.84v11.56a6.09,6.09,0,0,1-.29,1.82,5.07,5.07,0,0,1-1,1.72h0a5.49,5.49,0,0,1-1.28,1.12,5.12,5.12,0,0,1-1.55.68h0a6.09,6.09,0,0,1-1.55.19h0a5.5,5.5,0,0,1-1.56-.22v0a5.82,5.82,0,0,1-1.53-.69,5.54,5.54,0,0,1-1.26-1.1l0,0a5.13,5.13,0,0,1-.94-1.7,6,6,0,0,1-.3-1.82V180.36H80.47a2.44,2.44,0,0,1-2.32-2.6,3.65,3.65,0,0,1,.38-1.52l8.3-20.94v0l.06-.18a4.91,4.91,0,0,1,1-1.68l0,0a6.07,6.07,0,0,1,1.24-1h0a5.64,5.64,0,0,1,1.5-.63v0a6.71,6.71,0,0,1,1.51-.2,6.14,6.14,0,0,1,1.55.17,5.74,5.74,0,0,1,1.53.63,5.79,5.79,0,0,1,1.3,1.08,5.22,5.22,0,0,1,1,1.7m-5.31-21a7.5,7.5,0,1,0,7.49,7.5A7.49,7.49,0,0,0,92.21,134.11Z"/><path class="cls-3" d="M209.79,132.51a7.66,7.66,0,1,0,7.65,7.67,7.66,7.66,0,0,0-7.65-7.67m5.42,61.09a6,6,0,0,0,.32-1.88v-16.5l8.5-21.38h0a3,3,0,0,0,.14-.91,2.53,2.53,0,0,0-2.37-2.66h-24a2.53,2.53,0,0,0-2.37,2.66,3,3,0,0,0,.05.52h-.07L204,175.22v16.5a5.74,5.74,0,0,0,.32,1.85,5.13,5.13,0,0,0,1,1.72l0,0a5.83,5.83,0,0,0,1.27,1h0a5.88,5.88,0,0,0,1.53.65h0a6.51,6.51,0,0,0,1.55.21,6,6,0,0,0,3.15-.82,5.48,5.48,0,0,0,1.31-1.1A4.93,4.93,0,0,0,215.21,193.6Z"/></svg>