<svg id="Layer_1" data-name="Layer 1" xmlns="http://www.w3.org/2000/svg" viewBox="0 0 300 300"><defs><style>.cls-1{fill:#677e8a;opacity:0.61;}.cls-2{fill:#fff;}</style></defs><title>restroom-type</title><rect class="cls-1" x="65.53" y="69.34" width="168.94" height="168.94" rx="2"/><path class="cls-2" d="M200.69,90.67c-1.12-1.08-3.41-2.83-8-4.16l-7,24.89a.48.48,0,0,1-.59.33.47.47,0,0,1-.33-.59l7-24.87a57.85,57.85,0,0,0-14.39-1.58v24.87a.48.48,0,0,1-.48.48.47.47,0,0,1-.48-.48V84.69c-6.93,0-11.27.66-14.3,1.55l7.26,24.67a.49.49,0,0,1-.33.6.48.48,0,0,1-.59-.33l-7.26-24.65a21,21,0,0,0-4.12,1.92c-3.24,1.92-6.36,5-4.82,8,.78,1.48,13.18,17.53,13.18,18.37a13,13,0,0,1-.24,2h23.27s-.6-1.92,0-2.76,13-17.39,13-17.39A4.48,4.48,0,0,0,200.69,90.67Z"/><path class="cls-2" d="M189.65,119.7h-25c-3.74,0-3.14,4.32-3.14,4.32v76.89a15.36,15.36,0,1,0,30.71,0V123.18C192.25,119.44,189.65,119.7,189.65,119.7Zm-.44,80.67a.84.84,0,0,1-1.68,0v-74h1.68Z"/><path class="cls-2" d="M109.52,140.88h19.07V94.39s-9.83-26.82-19.07,8Z"/><rect class="cls-2" x="107.73" y="143.54" width="23.54" height="7.45"/><polyline class="cls-2" points="136.94 216.27 100.58 216.27 100.58 153.81 136.94 153.81 136.94 216.27"/></svg>