<svg id="Layer_1" data-name="Layer 1" xmlns="http://www.w3.org/2000/svg" viewBox="0 0 300 300"><defs><style>.cls-1{fill:#677e8a;opacity:0.61;}.cls-2,.cls-3{fill:#fff;}.cls-2{fill-rule:evenodd;}</style></defs><title>restroom-type</title><rect class="cls-1" x="65.53" y="69.34" width="168.94" height="168.94" rx="2"/><path class="cls-2" d="M206.57,134.32c.06.18.12.36.17.54l15.53,39.06h0a5.09,5.09,0,0,1,.26,1.62,4.5,4.5,0,0,1-4.22,4.74H207.16V201.2l0,.08a11.05,11.05,0,0,1-.53,3.32,9.08,9.08,0,0,1-1.73,3.12h0a10,10,0,0,1-2.33,2,9.54,9.54,0,0,1-2.79,1.23h0a10.29,10.29,0,0,1-2.84.36h0a10.51,10.51,0,0,1-2.83-.4v0a10,10,0,0,1-2.78-1.25,10.37,10.37,0,0,1-2.29-2l0-.07a9.34,9.34,0,0,1-1.7-3.08,10.79,10.79,0,0,1-.55-3.32l0-.08V180.28H175.6a4.44,4.44,0,0,1-4.22-4.74,6.46,6.46,0,0,1,.69-2.74l15.08-38.06,0,0,.1-.34A9.38,9.38,0,0,1,189,131.3l.06-.06a10.38,10.38,0,0,1,2.26-1.86h0a10.46,10.46,0,0,1,2.72-1.15l0,0a11.2,11.2,0,0,1,2.75-.38,11,11,0,0,1,2.81.31,10.08,10.08,0,0,1,2.79,1.15,9.88,9.88,0,0,1,2.34,1.95,9,9,0,0,1,1.79,3.09m-9.64-38.08a13.62,13.62,0,1,0,13.62,13.62A13.62,13.62,0,0,0,196.93,96.24Z"/><path class="cls-3" d="M151.26,154.19A6.76,6.76,0,1,0,158,161a6.76,6.76,0,0,0-6.77-6.76m4.8,53.95a5.5,5.5,0,0,0,.28-1.66V191.91L163.86,173h0a2.69,2.69,0,0,0,.13-.81,2.23,2.23,0,0,0-2.1-2.35H140.67a2.23,2.23,0,0,0-2.09,2.35,2.15,2.15,0,0,0,0,.45h-.06l7.62,19.24v14.57a5.25,5.25,0,0,0,.28,1.63,4.64,4.64,0,0,0,.88,1.53l0,0a5.24,5.24,0,0,0,1.12.92h0a5.18,5.18,0,0,0,1.35.57h0a6,6,0,0,0,1.36.19,5.89,5.89,0,0,0,1.4-.16,4.68,4.68,0,0,0,1.38-.57,4.92,4.92,0,0,0,1.17-1A4.49,4.49,0,0,0,156.06,208.14Z"/><path class="cls-3" d="M92.19,153.54A6.77,6.77,0,1,0,99,160.31a6.77,6.77,0,0,0-6.76-6.77m4.79,54a5.14,5.14,0,0,0,.28-1.65V191.27l7.51-18.89h0a2.63,2.63,0,0,0,.12-.8,2.23,2.23,0,0,0-2.09-2.35H81.6a2.23,2.23,0,0,0-2.1,2.35,3.14,3.14,0,0,0,0,.45h-.06l7.63,19.23v14.58a5,5,0,0,0,.28,1.63,4.49,4.49,0,0,0,.88,1.52l0,0a5,5,0,0,0,1.12.93h0a5.14,5.14,0,0,0,1.35.58h0a6.12,6.12,0,0,0,1.37.18,5.46,5.46,0,0,0,1.4-.15A5,5,0,0,0,96.09,209,4.45,4.45,0,0,0,97,207.49Z"/><path class="cls-2" d="M126.63,173a2.76,2.76,0,0,1,.08.27l7.74,19.47h0a2.63,2.63,0,0,1,.12.8,2.25,2.25,0,0,1-2.09,2.37h-5.56v10.46a5.72,5.72,0,0,1-.26,1.66,4.61,4.61,0,0,1-.86,1.55h0a5.15,5.15,0,0,1-1.16,1,4.73,4.73,0,0,1-1.4.61h0a4.71,4.71,0,0,1-1.41.18h0a5.28,5.28,0,0,1-1.41-.2h0a5.18,5.18,0,0,1-2.52-1.61l0,0A4.91,4.91,0,0,1,117,208a5.48,5.48,0,0,1-.27-1.65V195.88H111.2a2.21,2.21,0,0,1-2.1-2.37,3,3,0,0,1,.34-1.36l7.51-19v0L117,173a4.47,4.47,0,0,1,.89-1.53l0,0a5,5,0,0,1,1.12-.93h0a5.18,5.18,0,0,1,1.35-.57h0a6,6,0,0,1,1.37-.19,5.89,5.89,0,0,1,1.4.16,4.85,4.85,0,0,1,1.39.57,5.17,5.17,0,0,1,1.17,1,4.49,4.49,0,0,1,.89,1.53m-4.81-19a6.79,6.79,0,1,0,6.79,6.79A6.79,6.79,0,0,0,121.82,154Z"/></svg>