<svg id="Layer_1" data-name="Layer 1" xmlns="http://www.w3.org/2000/svg" viewBox="0 0 300 300"><defs><style>.cls-1{fill:#677e8a;opacity:0.61;}.cls-2{fill:#fff;}</style></defs><title>restroom-type</title><rect class="cls-1" x="71.61" y="73.62" width="168.94" height="168.94" rx="2"/><path class="cls-2" d="M159.08,93.17a13.75,13.75,0,1,0,13.75,13.75,13.75,13.75,0,0,0-13.75-13.75"/><path class="cls-2" d="M200.79,119.64H181.55l-9.9,30.27a4.12,4.12,0,0,0,2,4.91V155a26.82,26.82,0,1,1-32.45,39.2c-.84-1.33-1.74-2.69-3.71-2.64a4.27,4.27,0,0,0-3.52,1.67l-13.17,18.48-14.76-10.38a4.18,4.18,0,1,0-4.81,6.83l21.56,15.15L137,203.34a35.73,35.73,0,1,0,43.89-54.92L187.61,128h13.18a4.18,4.18,0,0,0,0-8.35Z"/><path class="cls-2" d="M109.49,191.28h0l0,0a9.34,9.34,0,0,1,1.27-1.83l14.7-21.07c3.46-4.81,6.6-5,10-4.92H151V134.66a9.1,9.1,0,0,1,18.2,0v38.1l-.05.05a9.08,9.08,0,0,1-9,8.62l0,0H137.87l-12.18,17.91a9.13,9.13,0,0,1-1.59,2.34l0,.06h0a9.08,9.08,0,0,1-15.66-6.27A8.9,8.9,0,0,1,109.49,191.28Z"/></svg>