<svg id="Layer_1" data-name="Layer 1" xmlns="http://www.w3.org/2000/svg" viewBox="0 0 300 300"><defs><style>.cls-1{fill:#677e8a;opacity:0.61;}.cls-2{fill:#fff;}</style></defs><title>restroom-type</title><rect class="cls-1" x="65.53" y="69.34" width="168.94" height="168.94" rx="2"/><path class="cls-2" d="M158.68,94.62a22,22,0,0,0-18.92,10.81c-1.2-2.18-3.53-5.39-7.1-6.29-6.29-1.59-13.22,1.55-16.63,6.68s-7.4,15.56-13.23,17.58C98.26,125,114,127,121.43,122.62c4.9-2.88,7.47-8.86,11.09-9.33a11.75,11.75,0,0,1,4.38.47,22,22,0,1,0,21.78-19.14Z"/><path class="cls-2" d="M168.54,202.8l23.69-9.48c5.14-2.22,6.52-6.48,5.43-10h0L188,154.19c-1.63-4.9-5.42-12.89-13.59-16.13a21.25,21.25,0,0,1-32.52-1.46h-2c-10.26.1-15.49,3.11-19.91,10.75l-12.88,31.91c-2.21,3.45-1.81,8.67,3.4,12.19l9.55,6.14-6.07,16.6a1.15,1.15,0,0,1,0,.32l0,.22a2.75,2.75,0,0,0,.4,1.24l.19.17.39.18,78.61-.17a2.39,2.39,0,0,0,.83-1.67l-6-15.55-18.45,7.24a1.92,1.92,0,0,1-.66.12,1.81,1.81,0,0,1-.66-3.49ZM158.1,179.67h0s3.32,4.21,3.34,7.27a3.6,3.6,0,0,1-.39,1.86l-6.5,2.75L138.91,198a11.31,11.31,0,0,0-2.61,1.58,7.26,7.26,0,0,1-3.59-4.14,9.52,9.52,0,0,1,.33-5.63c.76-2.8,1.71-6,2.47-8.79-3-.63-6-1.25-9-1.89-4.58-.94-3.27-7.66,1.33-6.7,4.45.93,8.76,1.72,13.21,2.65a5.29,5.29,0,0,1,2.44,1.09,4.09,4.09,0,0,1,.93,4.28l-1,3.62c2.05-.68,5.32-1.7,7.7-2.44a21.29,21.29,0,0,1-1.43-9.34,16.84,16.84,0,0,1,8.63-12.87,3.62,3.62,0,0,1,3.22,6.49,9.47,9.47,0,0,0-4.65,7.14A14.93,14.93,0,0,0,158.1,179.67Zm4.52.12a10.54,10.54,0,1,1,20-6.63,10.29,10.29,0,0,1-.07,6.54L168,185.88A10.43,10.43,0,0,1,162.62,179.79Z"/></svg>